<?xml version="1.0" standalone="no"?>
<!DOCTYPE svg PUBLIC "-//W3C//DTD SVG 20010904//EN"
 "http://www.w3.org/TR/2001/REC-SVG-20010904/DTD/svg10.dtd">
<svg version="1.0" xmlns="http://www.w3.org/2000/svg"
 width="600.000000pt" height="600.000000pt" viewBox="0 0 600.000000 600.000000"
 preserveAspectRatio="xMidYMid meet">

<g transform="translate(0.000000,600.000000) scale(0.100000,-0.100000)"
fill="#000000" stroke="none">
<path d="M0 3000 l0 -3000 3000 0 3000 0 0 3000 0 3000 -3000 0 -3000 0 0
-3000z m2483 2635 c4 -8 2 -17 -2 -20 -5 -2 -11 4 -14 15 -6 23 8 27 16 5z
m261 -174 c3 -5 -1 -11 -9 -15 -9 -3 -15 0 -15 9 0 16 16 20 24 6z m1831 -362
c9 -28 -1 -35 -21 -15 -9 10 -23 15 -31 12 -8 -4 -19 -3 -24 0 -18 11 2 24 36
24 25 0 35 -5 40 -21z m-89 -10 c3 -6 -10 -27 -30 -48 -20 -20 -36 -44 -36
-53 0 -8 -7 -21 -15 -28 -8 -7 -15 -18 -15 -24 0 -38 -134 -246 -149 -231 -3
3 -1 9 5 13 32 21 164 291 164 335 0 7 12 19 28 29 33 20 39 21 48 7z m-926
-79 c0 -13 -49 -60 -61 -60 -5 0 -9 -8 -10 -17 0 -10 -3 -13 -5 -6 -7 16 45
93 62 93 8 0 14 -5 14 -10z m-38 -184 c13 -8 23 -8 38 2 24 15 26 5 5 -18 -9
-10 -27 -51 -40 -91 l-24 -74 6 73 c4 46 2 76 -4 80 -6 4 -13 25 -17 47 -6 37
-6 38 6 16 7 -13 21 -29 30 -35z m772 -110 c-3 -8 -13 -17 -22 -21 -13 -5 -13
-2 3 15 21 24 26 25 19 6z m-96 -67 c-13 -17 -42 -51 -66 -77 -24 -25 -51 -56
-59 -69 -11 -17 -19 -21 -26 -14 -7 7 12 35 63 88 101 107 135 134 88 72z
m-2384 -45 c3 -8 2 -12 -4 -9 -6 3 -10 10 -10 16 0 14 7 11 14 -7z m-1156 -28
c1 -20 -5 -39 -14 -47 -8 -7 -20 -22 -26 -33 -10 -20 -10 -20 7 -6 17 14 17
14 4 -7 -12 -19 -16 -21 -28 -9 -9 10 -11 23 -6 43 5 15 8 31 7 35 -2 8 39 55
49 57 3 1 6 -14 7 -33z m2042 -36 c0 -5 8 -7 18 -4 13 4 13 2 -3 -8 -11 -7
-48 -41 -82 -75 -34 -35 -69 -63 -77 -63 -23 0 -20 17 3 25 11 3 43 35 71 71
47 60 70 78 70 54z m-826 -81 c17 -30 45 -68 61 -84 27 -27 28 -30 10 -33 -10
-3 -29 -11 -41 -18 -19 -13 -24 -12 -44 4 l-23 19 27 5 c17 4 29 0 35 -9 7
-13 9 -13 14 1 4 9 2 16 -4 16 -6 0 -8 4 -4 9 3 6 -1 13 -8 18 -7 4 -17 16
-20 27 -4 10 -13 16 -21 13 -10 -4 -16 5 -21 29 -3 20 -9 42 -12 51 -15 38 23
3 51 -48z m2142 6 c-9 -9 -16 -23 -16 -31 0 -15 -12 -19 -23 -7 -4 4 5 19 20
35 14 15 29 26 31 23 2 -2 -3 -11 -12 -20z m-461 -25 c4 -6 -7 -10 -25 -10
-18 0 -29 4 -25 10 3 6 15 10 25 10 10 0 22 -4 25 -10z m195 -5 c0 -15 -38
-41 -47 -32 -5 6 28 45 40 46 4 1 7 -6 7 -14z m25 -25 c-3 -5 -11 -10 -16 -10
-6 0 -7 5 -4 10 3 6 11 10 16 10 6 0 7 -4 4 -10z m-668 -40 c8 0 11 -4 8 -10
-3 -5 -15 -10 -26 -10 -10 0 -19 -4 -19 -10 0 -5 -5 -10 -11 -10 -5 0 -7 4 -4
10 3 6 -36 10 -102 12 l-108 3 95 11 c52 7 108 10 124 8 16 -2 35 -4 43 -4z
m278 -10 c3 -5 1 -10 -4 -10 -6 0 -11 5 -11 10 0 6 2 10 4 10 3 0 8 -4 11 -10z
m-881 -33 c-3 -9 -14 -19 -25 -22 -26 -8 -24 -30 3 -42 17 -8 36 -4 83 17 82
37 279 87 233 60 -9 -6 -30 -12 -47 -14 -17 -2 -37 -8 -44 -15 -8 -6 -16 -8
-19 -5 -8 7 -114 -41 -124 -57 -5 -8 -13 -27 -19 -42 -10 -30 -15 -33 -135
-92 -41 -20 -79 -42 -85 -49 -13 -16 -80 -66 -88 -66 -10 0 53 86 94 129 19
21 62 55 95 76 l59 38 -30 9 c-16 4 -38 19 -47 32 -15 21 -16 26 -3 36 11 9
15 9 15 1 0 -19 46 -12 65 9 20 22 29 21 19 -3z m833 17 c-3 -3 -12 -4 -19 -1
-8 3 -5 6 6 6 11 1 17 -2 13 -5z m239 -131 c35 -43 45 -64 20 -44 -22 19 -96
136 -96 152 1 8 10 -4 22 -26 11 -22 36 -59 54 -82z m-1612 -15 c-8 -15 -19
-28 -24 -28 -6 0 -10 -7 -10 -15 0 -8 -7 -15 -15 -15 -8 0 -15 4 -15 9 0 5 -3
23 -7 41 -5 26 -3 31 7 25 8 -5 17 -2 24 7 15 20 39 27 48 15 3 -6 0 -23 -8
-39z m248 4 c-7 -2 -12 -10 -12 -18 0 -24 -16 -15 -18 11 -1 18 2 23 13 19 9
-4 15 0 16 7 0 11 2 11 6 0 3 -8 1 -17 -5 -19z m1707 -34 c-15 -28 -30 -12
-17 18 8 17 14 21 19 12 4 -6 3 -20 -2 -30z m-46 -64 c-4 -12 -8 -13 -14 -3
-9 15 -2 32 11 24 5 -3 6 -13 3 -21z m-1663 -4 c0 -5 -5 -10 -11 -10 -5 0 -7
5 -4 10 3 6 8 10 11 10 2 0 4 -4 4 -10z m-285 -38 c5 -15 -92 -118 -103 -108
-3 4 17 28 45 55 55 52 59 70 11 45 -39 -20 -47 -10 -19 20 19 21 26 23 42 13
10 -6 21 -18 24 -25z m252 -86 c-16 -13 -16 -14 -1 -20 15 -6 12 -12 -16 -41
-21 -22 -40 -33 -50 -30 -26 8 -81 -36 -99 -80 -19 -47 -46 -57 -55 -20 -4 14
-10 23 -15 20 -5 -2 -12 3 -16 13 -4 11 0 21 10 27 10 6 33 22 52 38 20 15 40
27 45 27 5 0 14 5 21 11 16 14 119 67 132 68 6 0 2 -6 -8 -13z m3372 -32 c-13
-7 -27 -10 -31 -8 -3 2 -9 0 -13 -6 -9 -15 -22 -12 -29 7 -4 10 -4 15 -1 11 3
-3 22 0 43 7 44 15 65 8 31 -11z m-3753 -51 c-11 -21 -15 -23 -16 -10 0 24 22
65 27 50 2 -6 -3 -24 -11 -40z m2334 41 c0 -3 -10 -19 -21 -36 -17 -23 -24
-27 -30 -16 -14 22 -11 48 6 42 8 -4 15 -1 15 5 0 6 7 11 15 11 8 0 15 -3 15
-6z m-1436 -10 c9 -3 16 -11 16 -18 1 -6 19 -24 40 -41 60 -46 61 -61 3 -114
-66 -60 -105 -91 -119 -91 -6 0 -29 -14 -50 -31 -34 -27 -44 -30 -84 -24 -62
8 -74 -3 -76 -68 -2 -67 -19 -116 -61 -184 -18 -29 -33 -65 -33 -81 0 -15 -6
-37 -14 -47 -13 -18 -15 -18 -82 2 -65 20 -69 22 -68 49 1 16 22 73 48 127 25
54 49 110 52 125 4 15 10 32 14 37 4 6 10 22 14 37 11 48 170 188 302 267 29
17 57 38 64 46 14 17 13 17 34 9z m2770 -9 c-4 -8 -16 -15 -27 -15 -20 0 -20
0 -1 15 25 19 35 19 28 0z m-3569 -84 c8 -26 -14 -61 -34 -53 -13 5 -14 3 -5
-9 14 -16 1 -32 -29 -37 -16 -3 -16 0 3 30 11 18 20 43 20 55 0 19 11 30 32
32 4 1 9 -8 13 -18z m3445 11 c0 -14 -39 -46 -47 -39 -3 4 2 16 12 27 19 21
35 26 35 12z m-3520 -42 c-8 -5 -19 -10 -25 -10 -5 0 -3 5 5 10 8 5 20 10 25
10 6 0 3 -5 -5 -10z m86 -81 c-14 -25 -37 -56 -51 -69 -14 -13 -25 -30 -25
-37 0 -8 -13 -19 -29 -24 -40 -14 -44 -32 -15 -74 32 -48 30 -90 -7 -161 -23
-42 -33 -78 -38 -129 -6 -61 -7 -66 -14 -37 -8 37 -30 39 -35 4 -3 -18 -10
-22 -35 -21 -18 1 -24 3 -14 6 19 5 20 8 11 41 -4 14 -12 21 -20 18 -7 -3 -11
0 -8 7 2 7 21 14 41 15 21 2 38 4 39 5 1 1 4 35 6 75 3 54 0 72 -9 72 -17 0
-16 29 1 72 9 22 11 39 6 49 -5 7 -7 21 -4 30 3 12 -5 20 -27 28 -41 14 -39
15 -40 -11 -1 -16 -4 -13 -10 12 -5 19 -14 43 -19 53 -9 16 -8 16 10 5 17 -11
25 -10 51 5 17 9 38 17 48 17 18 0 49 45 39 56 -3 3 -15 0 -26 -7 -16 -10 -26
-10 -46 -1 -26 12 -38 36 -13 26 8 -3 27 0 42 6 24 9 32 8 41 -4 6 -9 18 -16
27 -16 20 0 31 -16 17 -25 -5 -3 -10 -15 -10 -26 0 -20 1 -20 31 3 18 13 48
39 68 59 20 19 37 33 39 29 1 -4 -9 -27 -22 -51z m3304 22 c0 -5 -15 -18 -34
-29 -42 -25 -57 -6 -17 20 29 19 51 23 51 9z m-3600 -16 c0 -8 -4 -15 -10 -15
-5 0 -10 7 -10 15 0 8 5 15 10 15 6 0 10 -7 10 -15z m352 -148 c-20 -13 -24
-3 -10 28 l13 28 6 -24 c3 -15 0 -27 -9 -32z m3008 18 c-14 -17 -30 -20 -30
-6 0 5 8 12 18 14 9 3 19 5 21 6 2 0 -2 -6 -9 -14z m-2864 -103 c-11 -10 -15
4 -8 28 l7 25 3 -23 c2 -13 1 -26 -2 -30z m-436 -177 c-7 -9 -15 -13 -19 -10
-3 3 1 10 9 15 21 14 24 12 10 -5z m-62 -125 c-1 -16 -5 -30 -10 -30 -9 0 -11
22 -2 44 9 24 13 19 12 -14z m104 -44 c1 -21 -6 -43 -15 -54 -22 -24 -21 -33
1 -26 11 4 8 -1 -8 -15 -14 -11 -29 -21 -34 -21 -5 0 -15 -8 -23 -17 -8 -10
-12 -12 -8 -5 3 6 2 12 -4 12 -5 0 -15 -16 -21 -35 -6 -19 -18 -35 -25 -35 -7
0 -16 -6 -19 -12 -3 -7 -4 -1 -2 15 2 15 -1 27 -6 27 -16 0 24 58 49 71 29 16
30 33 1 23 -23 -7 -23 -7 -4 15 15 16 21 18 27 9 11 -16 41 1 45 24 2 17 37
68 42 63 1 -1 3 -19 4 -39z m35 -88 c-3 -8 -6 -5 -6 6 -1 11 2 17 5 13 3 -3 4
-12 1 -19z m-119 -112 c-10 -7 -15 -16 -11 -19 9 -10 -9 -8 -25 1 -9 6 -5 12
13 20 16 8 23 17 19 25 -5 8 -3 8 7 -1 12 -11 11 -15 -3 -26z m-38 -30 c0 -2
3 -13 7 -23 6 -16 5 -16 -10 -4 -9 7 -23 11 -31 8 -10 -4 -13 -1 -9 9 4 12 43
21 43 10z m-142 -86 c3 -87 29 -171 81 -264 21 -38 30 -69 34 -121 4 -44 3
-59 -2 -40 -5 17 -9 45 -10 63 0 18 -18 66 -40 106 -21 40 -44 90 -51 112 -7
21 -16 43 -21 49 -16 16 -11 176 5 175 1 0 2 -36 4 -80z m457 -261 c9 -17 15
-32 13 -34 -9 -7 -68 -35 -75 -35 -4 0 0 7 10 14 20 16 12 50 -10 42 -8 -3
-11 -1 -8 5 4 5 14 9 23 8 30 -3 35 1 22 16 -8 10 -9 15 -1 15 6 0 18 -14 26
-31z m2630 13 c-3 -3 -11 0 -18 7 -9 10 -8 11 6 5 10 -3 15 -9 12 -12z m-2705
-2 c0 -5 -6 -10 -13 -10 -7 0 -18 -9 -24 -19 -10 -15 -9 -20 2 -25 17 -6 20
-36 4 -36 -6 0 -25 -11 -42 -24 -18 -13 -45 -26 -60 -30 -26 -6 -24 -2 33 68
33 41 68 77 78 79 9 3 18 5 20 6 1 0 2 -3 2 -9z m3167 -187 c11 -22 10 -28 -5
-39 -37 -29 -57 0 -32 47 14 26 23 24 37 -8z m-3047 -72 c0 -5 -7 -17 -16 -25
-8 -9 -12 -16 -8 -16 3 0 1 -7 -6 -15 -17 -20 -33 -9 -20 15 10 19 38 50 46
50 2 0 4 -4 4 -9z m10 -57 c0 -8 -4 -12 -10 -9 -5 3 -10 10 -10 16 0 5 5 9 10
9 6 0 10 -7 10 -16z m-430 -23 c0 -13 -26 -32 -33 -24 -8 7 11 33 24 33 5 0 9
-4 9 -9z m-130 -76 c-26 -28 -40 -32 -40 -12 0 8 10 19 23 25 36 18 42 14 17
-13z m928 3 c6 -1 12 -4 12 -8 0 -9 125 -70 165 -81 28 -8 28 -8 -7 -5 -20 3
-85 28 -145 56 -71 34 -96 49 -73 46 19 -4 41 -7 48 -8z m-1013 -56 c-16 -11
-36 -26 -44 -36 -7 -9 -37 -28 -65 -42 -28 -14 -66 -39 -83 -57 -18 -17 -33
-28 -33 -25 0 4 -24 -9 -52 -28 -29 -19 -58 -34 -64 -34 -7 0 -22 -11 -35 -25
-13 -13 -28 -25 -32 -25 -12 0 -161 -102 -173 -118 -6 -8 -16 -12 -21 -9 -13
8 -93 -77 -93 -99 0 -8 -5 -14 -12 -12 -12 4 -42 -37 -54 -74 -8 -22 -18 -23
-34 -3 -28 33 93 167 204 226 33 18 63 35 66 39 4 5 129 90 169 115 9 5 30 20
48 32 17 13 35 23 38 23 4 0 43 28 88 61 45 34 88 64 97 67 8 3 26 14 39 24
13 10 35 18 50 18 l26 0 -30 -18z m598 1 c3 9 12 17 18 17 8 0 7 -5 -2 -17 -8
-9 -13 -24 -11 -35 2 -10 -2 -18 -7 -18 -6 0 -11 6 -11 13 0 6 -3 23 -5 37 -4
20 -4 21 3 6 8 -18 9 -18 15 -3z m-13 -77 c0 -7 -7 -19 -15 -26 -17 -14 -20
-35 -4 -24 7 4 10 1 7 -6 -6 -18 -20 -22 -36 -11 -10 6 -8 16 10 44 24 38 38
46 38 23z m3640 -27 c0 -6 -4 -7 -10 -4 -5 3 -10 11 -10 16 0 6 5 7 10 4 6 -3
10 -11 10 -16z m-3016 -80 c-3 -6 4 -21 17 -35 12 -13 18 -24 12 -24 -6 0 -16
7 -23 15 -7 8 -20 15 -29 16 -10 0 -12 2 -3 6 6 2 10 9 6 14 -7 12 5 31 17 23
5 -3 7 -10 3 -15z m-810 -106 c-10 -16 -24 -40 -32 -55 -7 -16 -20 -28 -27
-28 -7 0 -16 -6 -18 -12 -3 -7 -6 -3 -6 10 -1 12 4 22 9 22 6 0 10 6 10 14 0
17 56 76 72 76 6 0 2 -12 -8 -27z m814 -94 c-2 -3 3 -13 10 -22 16 -18 7 -60
-11 -54 -7 2 -13 23 -15 46 -2 29 1 42 8 39 6 -2 10 -6 8 -9z m65 -77 c-18 -5
-27 3 -18 17 4 7 10 7 20 -2 11 -10 11 -13 -2 -15z m971 -159 c-4 -91 -8 -118
-19 -114 -5 1 -8 8 -6 15 2 6 3 38 2 71 0 33 2 68 5 77 11 34 20 9 18 -49z
m-3104 -83 c6 -11 8 -20 6 -20 -3 0 -10 9 -16 20 -6 11 -8 20 -6 20 3 0 10 -9
16 -20z m2316 -7 c-2 -10 -10 -51 -16 -90 -7 -40 -17 -76 -22 -80 -8 -4 -9 2
-4 18 4 13 12 57 18 97 6 39 15 72 20 72 5 0 7 -8 4 -17z m-2281 -43 c10 -11
14 -20 9 -20 -5 0 -15 9 -22 20 -7 11 -11 20 -9 20 2 0 12 -9 22 -20z m2245
-144 c0 -3 -4 -8 -10 -11 -5 -3 -10 -1 -10 4 0 6 5 11 10 11 6 0 10 -2 10 -4z"/>
<path d="M2055 3890 c-3 -5 -1 -10 4 -10 6 0 11 5 11 10 0 6 -2 10 -4 10 -3 0
-8 -4 -11 -10z"/>
<path d="M1710 3627 c0 -9 32 -68 36 -65 7 8 -13 62 -24 66 -7 2 -12 2 -12 -1z"/>
</g>
</svg>
