<?xml version="1.0" standalone="no"?>
<!DOCTYPE svg PUBLIC "-//W3C//DTD SVG 20010904//EN"
 "http://www.w3.org/TR/2001/REC-SVG-20010904/DTD/svg10.dtd">
<svg version="1.0" xmlns="http://www.w3.org/2000/svg"
 width="600.000000pt" height="600.000000pt" viewBox="0 0 600.000000 600.000000"
 preserveAspectRatio="xMidYMid meet">

<g transform="translate(0.000000,600.000000) scale(0.100000,-0.100000)"
fill="#000000" stroke="none">
<path d="M2601 5358 c-25 -58 -47 -164 -71 -342 -11 -82 -20 -150 -20 -152 0
-8 -59 -4 -82 5 -13 5 -32 18 -43 28 -30 28 -94 55 -113 48 -15 -6 -15 -8 -1
-14 16 -6 21 -10 87 -67 41 -35 146 -166 170 -211 7 -12 12 -42 12 -67 0 -42
2 -46 24 -46 39 0 97 -136 82 -194 -5 -22 -12 -25 -44 -24 -78 3 -143 -2 -138
-11 3 -5 -3 -11 -14 -14 -12 -3 -20 0 -20 8 0 8 -9 11 -25 7 -20 -3 -25 -10
-25 -33 0 -33 -5 -34 -51 -15 -25 10 -37 11 -51 3 -14 -9 -24 -8 -48 7 -17 10
-34 15 -37 12 -4 -3 -2 -6 4 -6 6 0 13 -13 15 -30 3 -16 1 -30 -4 -30 -4 0 -8
9 -8 20 0 31 -23 34 -97 10 -37 -12 -74 -24 -81 -26 -7 -2 -10 -9 -6 -15 5 -8
-1 -10 -19 -5 -33 8 -57 -2 -57 -23 0 -12 -2 -13 -9 -3 -6 11 -17 9 -54 -10
-27 -13 -45 -28 -42 -36 3 -9 -3 -10 -20 -6 -17 4 -39 -4 -79 -31 -31 -20 -56
-41 -56 -46 0 -5 -5 -9 -10 -9 -11 0 -24 -10 -61 -42 -10 -10 -23 -18 -28 -18
-6 0 -13 -5 -17 -12 -5 -8 -2 -9 9 -5 27 10 20 -9 -8 -21 -14 -6 -25 -16 -25
-22 0 -6 17 1 38 15 59 39 159 84 267 120 103 35 303 80 313 71 6 -6 8 -6
-118 -36 -87 -20 -156 -45 -203 -71 -9 -5 -42 -19 -72 -30 -50 -19 -142 -75
-173 -106 -7 -7 -16 -13 -20 -13 -4 0 -29 -20 -56 -45 -27 -24 -53 -42 -58
-39 -4 3 -5 -2 -2 -10 3 -9 1 -16 -5 -16 -7 0 -46 -35 -88 -77 -42 -43 -80
-77 -85 -75 -5 1 -7 -2 -3 -8 3 -5 -1 -20 -9 -32 -9 -12 -16 -17 -16 -10 0 7
-5 10 -10 7 -6 -4 -9 -14 -8 -23 2 -9 -3 -16 -9 -14 -7 1 -13 -7 -13 -18 0
-11 -7 -23 -15 -26 -8 -4 -15 -14 -15 -23 0 -22 -55 -113 -63 -104 -4 3 -8 0
-8 -8 -2 -23 -5 -33 -16 -59 -115 -264 -137 -346 -154 -577 -11 -157 3 -479
22 -497 5 -6 9 -27 9 -48 0 -21 4 -38 9 -38 5 0 12 -26 16 -57 4 -32 11 -61
16 -64 6 -3 11 -19 12 -35 1 -16 4 -31 7 -34 10 -9 30 -76 30 -98 0 -12 5 -22
10 -22 6 0 10 -11 10 -25 0 -32 20 -76 32 -69 5 3 9 0 7 -7 -4 -32 1 -50 13
-43 6 4 8 3 4 -4 -10 -16 102 -191 220 -344 45 -58 232 -242 304 -300 25 -20
71 -57 103 -82 31 -26 76 -58 100 -71 130 -76 229 -125 282 -140 89 -26 214
-76 223 -89 16 -25 55 -36 131 -36 44 0 83 -4 86 -10 3 -5 26 -10 50 -10 24 0
47 -5 50 -10 3 -6 30 -10 60 -10 30 0 57 -4 60 -10 8 -14 422 -14 430 0 4 6
58 10 130 10 72 0 126 4 130 10 3 6 35 10 70 10 35 0 67 5 70 10 3 6 26 10 50
10 24 0 47 5 50 10 4 6 29 9 58 7 41 -2 55 1 75 20 34 31 129 58 158 44 17 -8
32 -6 59 5 19 8 35 18 35 22 0 9 113 72 129 72 24 0 220 157 311 249 163 166
204 211 191 211 -11 0 -11 3 -1 15 7 8 15 13 19 11 4 -3 12 4 19 15 8 12 8 19
2 19 -11 0 -4 11 33 51 9 10 17 22 17 26 0 7 48 110 81 175 5 10 9 24 9 33 0
8 9 29 20 47 11 18 20 41 20 51 0 9 5 17 10 17 6 0 10 9 10 20 0 10 6 34 14
52 8 18 22 53 31 78 9 25 21 52 25 60 4 9 11 36 15 60 4 25 11 50 15 55 4 6
10 26 13 45 4 19 13 76 21 125 9 50 20 110 25 135 16 72 19 426 4 423 -16 -4
-17 39 -2 54 7 7 8 17 3 25 -5 7 -9 24 -10 38 -1 14 -7 48 -14 75 -7 28 -12
67 -11 88 0 20 -3 37 -8 37 -12 0 -28 46 -36 100 -4 25 -22 77 -41 116 -19 38
-34 80 -34 92 0 13 -7 25 -15 28 -8 4 -15 17 -15 29 0 13 -4 27 -10 30 -5 3
-10 16 -10 28 0 12 -14 35 -31 52 -22 22 -29 37 -27 60 3 26 0 30 -19 27 -15
-2 -23 2 -23 12 0 8 -5 16 -10 18 -6 2 -12 20 -13 40 -1 20 -6 40 -10 44 -14
15 -6 24 12 14 28 -14 31 -13 31 13 0 12 -9 27 -19 32 -11 6 -35 18 -55 29
-20 10 -56 39 -80 65 -121 128 -146 157 -146 168 0 7 -4 13 -9 13 -5 0 -42 31
-82 68 -169 157 -420 264 -544 233 -24 -6 -60 -11 -79 -11 -52 0 -235 -50
-263 -72 -6 -5 -31 -8 -55 -6 -42 3 -43 4 -45 38 -1 19 -2 40 -2 45 -1 6 -8
20 -16 30 -8 11 -38 55 -65 97 -28 42 -69 93 -92 113 -104 95 -297 135 -452
95 -44 -11 -103 -20 -132 -20 l-53 0 -11 39 c-34 126 -51 467 -31 609 9 63 -2
67 -28 10z m-28 -513 c-3 -9 -8 -14 -10 -11 -3 3 -2 9 2 15 9 16 15 13 8 -4z
m533 -163 c5 -5 25 -15 44 -22 19 -7 64 -31 100 -54 52 -32 75 -55 108 -107
23 -37 42 -75 42 -85 0 -19 -57 -84 -73 -84 -6 0 -16 -8 -23 -17 -12 -16 -15
-16 -24 -3 -9 13 -10 13 -11 0 -1 -8 -1 -22 0 -30 1 -10 -4 -8 -16 7 -10 12
-27 22 -38 21 -11 0 -35 2 -52 6 -23 4 -33 3 -33 -6 0 -10 -2 -10 -9 1 -6 9
-11 10 -15 2 -4 -6 -4 -15 -1 -21 3 -5 1 -10 -4 -10 -6 0 -11 8 -12 18 -1 21
-4 36 -17 87 -18 65 -17 108 2 138 19 27 19 51 1 135 -6 24 -4 32 7 32 8 0 18
-4 24 -8z m-312 -24 c-4 -13 -7 -43 -7 -68 l1 -45 -25 53 c-28 60 -25 82 12
82 23 0 25 -3 19 -22z m10 -134 c3 -8 2 -12 -4 -9 -6 3 -10 10 -10 16 0 14 7
11 14 -7z m-644 -274 c-8 -5 -19 -10 -25 -10 -5 0 -3 5 5 10 8 5 20 10 25 10
6 0 3 -5 -5 -10z m2101 -43 c26 -18 86 -57 133 -87 47 -30 116 -83 153 -118
48 -46 54 -54 21 -28 -25 20 -51 36 -58 36 -6 0 -9 4 -6 9 3 5 -8 14 -24 21
-17 7 -30 17 -30 22 0 5 -6 8 -12 5 -7 -2 -28 5 -46 15 -18 10 -38 15 -44 12
-6 -4 -8 -3 -5 3 6 9 -70 38 -126 49 -62 11 -83 17 -88 26 -3 5 -59 11 -123
13 -65 2 -120 6 -123 9 -4 3 -11 2 -17 -3 -18 -14 -75 -21 -81 -11 -4 6 -11 8
-16 4 -5 -3 -7 -9 -5 -13 3 -4 -12 -8 -32 -9 -20 0 -59 -3 -87 -6 l-49 -5 33
21 c48 31 173 58 271 59 47 1 99 4 115 8 17 4 68 5 114 3 74 -3 89 -7 132 -35z
m-1760 6 c-12 -20 -14 -14 -5 12 4 9 9 14 11 11 3 -2 0 -13 -6 -23z m-18 -84
c-7 -7 -28 -12 -48 -11 -19 1 -35 -3 -35 -10 0 -7 -14 -8 -40 -4 -23 3 -40 2
-40 -3 0 -6 -12 -6 -29 -1 -16 4 -33 5 -37 2 -4 -4 -4 -1 0 6 4 6 14 12 22 12
8 0 14 3 14 8 0 4 46 8 103 10 81 3 100 1 90 -9z m782 -57 c27 -8 28 -9 8 -14
-12 -3 -23 -2 -25 2 -2 5 -39 11 -83 15 -44 3 -82 9 -85 12 -7 8 148 -5 185
-15z m75 -30 c0 -4 -13 -8 -30 -8 -16 -1 -27 2 -24 7 6 11 54 12 54 1z m135
-941 c5 -9 18 -9 50 0 6 1 22 -1 37 -5 14 -4 35 -3 46 3 16 8 21 6 32 -14 7
-13 18 -21 26 -18 17 6 17 2 4 -31 -8 -22 -7 -26 8 -26 15 -1 15 -2 1 -13 -9
-7 -19 -24 -22 -38 -6 -25 -9 -26 -54 -19 -27 4 -52 6 -56 3 -4 -3 -13 9 -20
26 -6 17 -23 35 -38 41 -27 12 -39 35 -39 78 0 22 14 30 25 13z"/>
<path d="M4391 4097 c2 -1 13 -9 24 -17 19 -14 19 -14 6 3 -7 9 -18 17 -24 17
-6 0 -8 -1 -6 -3z"/>
<path d="M2343 4285 c0 -8 4 -15 9 -15 4 0 8 7 8 15 0 8 -4 15 -8 15 -5 0 -9
-7 -9 -15z"/>
<path d="M4900 3610 c0 -5 5 -10 11 -10 5 0 7 5 4 10 -3 6 -8 10 -11 10 -2 0
-4 -4 -4 -10z"/>
</g>
</svg>
